<svg width="80" height="32" viewBox="0 0 80 32" fill="none" xmlns="http://www.w3.org/2000/svg">
<path d="M72.9752 23.6188C71.7829 23.6188 70.8396 23.2943 70.1453 22.6453C69.451 21.9964 69.1039 21.1436 69.1039 20.0871C69.1039 19.0457 69.4661 18.2231 70.1906 17.6194C70.915 17.0006 71.9413 16.6384 73.2695 16.5327L76.5522 16.2611V16.0347C76.5522 15.5819 76.4617 15.2121 76.2806 14.9253C76.1145 14.6386 75.873 14.4273 75.5561 14.2914C75.2391 14.1556 74.8543 14.0877 74.4015 14.0877C73.6167 14.0877 73.0129 14.2386 72.5903 14.5405C72.1677 14.8423 71.9564 15.2725 71.9564 15.8309H69.3982C69.3982 15.0008 69.6095 14.2839 70.0321 13.6802C70.4547 13.0614 71.0509 12.5859 71.8206 12.2539C72.6054 11.9068 73.5186 11.7332 74.56 11.7332C75.6014 11.7332 76.4843 11.9218 77.2088 12.2992C77.9483 12.6614 78.5143 13.2047 78.9067 13.9292C79.3142 14.6537 79.518 15.5441 79.518 16.6006V23.3245H76.8465L76.6201 21.7398C76.4088 22.2831 75.9636 22.7359 75.2844 23.0981C74.6052 23.4453 73.8355 23.6188 72.9752 23.6188ZM73.994 21.3323C74.7637 21.3323 75.3825 21.1285 75.8504 20.721C76.3334 20.2984 76.5749 19.6947 76.5749 18.9099V18.2986L74.4694 18.4797C73.6393 18.5552 73.0507 18.7136 72.7035 18.9551C72.3715 19.1966 72.2055 19.5287 72.2055 19.9513C72.2055 20.4191 72.3564 20.7663 72.6583 20.9927C72.9601 21.2191 73.4054 21.3323 73.994 21.3323Z" fill="white"/>
<path d="M67.3725 23.3245H58.181V20.8116L63.5465 14.6084H58.181V12.0954H67.3725V14.6084L61.8938 20.7889H67.3725V23.3245Z" fill="white"/>
<path d="M49.5621 23.6188C48.3698 23.6188 47.4265 23.2943 46.7322 22.6453C46.0379 21.9964 45.6908 21.1436 45.6908 20.0871C45.6908 19.0457 46.053 18.2231 46.7775 17.6194C47.5019 17.0006 48.5283 16.6384 49.8564 16.5327L53.1391 16.2611V16.0347C53.1391 15.5819 53.0486 15.2121 52.8675 14.9253C52.7014 14.6386 52.46 14.4273 52.143 14.2914C51.8261 14.1556 51.4412 14.0877 50.9884 14.0877C50.2036 14.0877 49.5999 14.2386 49.1773 14.5405C48.7547 14.8423 48.5434 15.2725 48.5434 15.8309H45.9851C45.9851 15.0008 46.1964 14.2839 46.619 13.6802C47.0416 13.0614 47.6378 12.5859 48.4075 12.2539C49.1923 11.9068 50.1055 11.7332 51.1469 11.7332C52.1883 11.7332 53.0712 11.9218 53.7957 12.2992C54.5352 12.6614 55.1012 13.2047 55.4936 13.9292C55.9011 14.6537 56.1049 15.5441 56.1049 16.6006V23.3245H53.4334L53.2071 21.7398C52.9958 22.2831 52.5505 22.7359 51.8713 23.0981C51.1922 23.4453 50.4224 23.6188 49.5621 23.6188ZM50.5809 21.3323C51.3506 21.3323 51.9694 21.1285 52.4373 20.721C52.9203 20.2984 53.1618 19.6947 53.1618 18.9099V18.2986L51.0563 18.4797C50.2262 18.5552 49.6376 18.7136 49.2905 18.9551C48.9584 19.1966 48.7924 19.5287 48.7924 19.9513C48.7924 20.4191 48.9433 20.7663 49.2452 20.9927C49.547 21.2191 49.9923 21.3323 50.5809 21.3323Z" fill="white"/>
<path d="M43.4083 23.3245H40.3746V6.3903H43.4083V23.3245Z" fill="white"/>
<path d="M29.3599 6.70726V23.3245H26.1678V6.70726H29.3599ZM32.8237 17.6647H28.5902V14.8348H32.1219C33.0879 14.8348 33.8123 14.6084 34.2953 14.1556C34.7783 13.6877 35.0198 13.0236 35.0198 12.1633C35.0198 11.303 34.7783 10.654 34.2953 10.2164C33.8123 9.76357 33.0954 9.53718 32.1446 9.53718H28.4317V6.70726H32.8237C33.9406 6.70726 34.9141 6.93365 35.7442 7.38644C36.5743 7.83923 37.2233 8.48067 37.6912 9.31078C38.1591 10.1258 38.393 11.0842 38.393 12.186C38.393 13.2576 38.1591 14.2084 37.6912 15.0385C37.2233 15.8686 36.5743 16.5176 35.7442 16.9855C34.9141 17.4383 33.9406 17.6647 32.8237 17.6647Z" fill="white"/>
<path d="M0 9.93991L10.1151 4.02921L19.8798 9.93991L10.1151 15.5002L0 9.93991Z" fill="#6166E4"/>
<path d="M0 21.1516L10.1151 15.2409L19.8798 21.1516L10.1151 26.712L0 21.1516Z" fill="#F4A019"/>
<path fill-rule="evenodd" clip-rule="evenodd" d="M0 8.68506L10.1249 2.76865L19.9709 8.72856V11.1348L17.2472 12.6857L19.9709 14.3344V16.7407L17.2472 18.2916L19.9709 19.9403V22.3465L10.1244 27.9534L0 22.3879V19.8968L2.74655 18.2919L0 16.7821V14.291L2.74658 12.686L0 11.1762V8.68506ZM4.95958 13.9025L2.19669 15.517L4.9269 17.0178L7.68979 15.4033L4.95958 13.9025ZM4.95954 19.5084L2.19669 21.1228L10.1058 25.4705L17.7405 21.1231L15.0911 19.5194L10.1244 22.3475L4.95954 19.5084ZM12.9685 18.2345L10.1058 19.8647L7.1399 18.2343L9.90279 16.6198L10.1244 16.7417L10.3191 16.6308L12.9685 18.2345ZM15.1246 17.0068L17.7405 15.5172L15.0911 13.9135L12.4752 15.4031L15.1246 17.0068ZM12.9685 12.6287L10.3526 14.1182L10.1249 13.9804L9.87014 14.1292L7.13993 12.6284L10.1053 10.8956L12.9685 12.6287ZM15.1246 11.4009L10.1249 8.37454L4.92693 11.4119L2.19669 9.91109L10.1053 5.28971L17.7405 9.91134L15.1246 11.4009Z" fill="black"/>
<path d="M2.1601 15.5394L10.1055 10.8966L17.7757 15.5394L10.1055 19.9071L2.1601 15.5394Z" fill="white"/>
<path d="M6.47198 15.5394L10.0294 13.4607L13.4636 15.5394L10.0294 17.4949L6.47198 15.5394Z" fill="black"/>
</svg>
